<?xml version="1.0" encoding="utf-8"?>
<!-- Generator: Adobe Illustrator 13.0.0, SVG Export Plug-In . SVG Version: 6.00 Build 14948)  -->
<!DOCTYPE svg PUBLIC "-//W3C//DTD SVG 1.1//EN" "http://www.w3.org/Graphics/SVG/1.1/DTD/svg11.dtd">
<svg version="1.1" id="Ebene_1" xmlns="http://www.w3.org/2000/svg" xmlns:xlink="http://www.w3.org/1999/xlink" x="0px" y="0px"
	 width="147.312px" height="40px" viewBox="0 0 147.312 40" enable-background="new 0 0 147.312 40" xml:space="preserve">
<g id="po">
	<g>
		<g>
			<g>
				<path d="M132.943,25.521c-0.511-1.438-1.928-2.781-4.042-2.767c-2.604,0.026-3.963,2.33-5.66,3.192
					c-0.495,0.25-1.323,0.109-1.823-0.414c-0.786-0.836-0.479-1.594,0.308-2.264c0.547-0.479,2.553-1.683,3.761-2.385
					c0.964-0.557,1.267-1.307,1.35-1.901c0.067-0.474-0.037-1.266-0.438-1.792c-0.808-1.041-2.312-1.182-3.396-1.031
					c-1.422,0.204-1.573-1.129-1.442-1.664c0.301-1.252,1.558-1.2,2.417-0.638c0.822,0.545,1.822,1.157,3.51,1.316
					c1.178,0.112,3.933-0.951,3.923-3.878c-0.018-3.609-3.614-6.133-8.506-6.281c-3.22-0.099-5.988,1.125-7.776,3.042
					c0.733,1.75,0.667,3.727-0.218,5.396c-0.25,0.484-0.693,1.291-1.271,2.307c0.61,1.039,1.579,1.669,2.542,2.299
					c-2.553,1.52-4.192,4.12-4.229,7.172c-0.078,6.394,5.38,9.496,10.271,9.394c5.863-0.131,9.646-4.162,10.223-5.056
					C133.078,28.585,133.406,26.826,132.943,25.521z M124.464,7.082c0.213-0.322,0.739-0.427,1.287-0.171
					c0.266,0.125,1.004,0.427,1.614,0.948c0.992,0.838,1.296,1.417,1.426,1.617c0.438,0.633,0.309,1.123-0.124,1.359
					c-0.219,0.127-0.792,0.175-1.096-0.502c-0.104-0.244-0.41-0.682-1.165-1.313c-0.757-0.624-1.229-0.764-1.47-0.892
					C124.182,7.719,124.25,7.398,124.464,7.082z M128.776,26.865c-0.571-0.012-1.03-0.475-1.016-1.043
					c0.006-0.573,0.469-1.031,1.048-1.025c0.566,0.006,1.021,0.475,1.016,1.045C129.812,26.416,129.349,26.872,128.776,26.865z"/>
			</g>
			<g>
				<path d="M25.339,5.296C19.547,5.221,14.1,9.588,14.011,16.947l-0.151,12.61c0.146,3.026,2.392,4.602,4.604,4.631
					c2.146,0.026,4.869-1.729,4.895-4.057c0.017-1.738,0.115-2.561,0.059-4.754c1.089,0.742,1.995,1.123,3.828,1.051
					c4.016-0.146,8.755-1.998,9.433-9.113C37.302,10.648,31.109,5.364,25.339,5.296z M25.183,18.807
					c-1.26-0.016-2.271-1.062-2.255-2.349c0.015-1.292,1.052-2.324,2.308-2.303c1.267,0.015,2.266,1.07,2.255,2.354
					C27.479,17.796,26.443,18.823,25.183,18.807z M33.422,13.526c-0.406,0.2-0.839,0.126-1.094-0.381
					c-0.095-0.196-0.489-1.349-1.333-2.193c-0.84-0.849-1.729-1.424-2.037-1.609c-0.588-0.365-0.713-0.75-0.429-1.192
					c0.24-0.365,0.798-0.358,1.449,0c0.558,0.302,1.281,0.687,2.267,1.78c0.875,0.974,1.203,1.724,1.385,2.333
					C33.808,12.843,33.833,13.316,33.422,13.526z"/>
			</g>
			<g>
				<path d="M42.995,4.994c-4.042-0.046-6.984,1.401-8.947,3.755c0.083,0.089,0.172,0.169,0.255,0.261
					c2.146,2.396,3.176,5.358,2.89,8.353c-0.458,4.834-2.733,7.276-5.213,8.478c1.448,4.521,4.651,8.283,10.929,8.362
					c8.291,0.102,11.905-9.459,12.113-15.12C55.302,11.275,50.448,5.088,42.995,4.994z M41.928,25.51
					c-0.146,0.377-0.588,0.356-1.125,0.199c-0.317-0.098-0.958-0.43-1.5-1.033c-0.411-0.455-0.729-0.963-0.817-1.164
					c-0.255-0.58-0.214-0.865,0.073-1.033c0.219-0.127,0.5-0.086,0.725,0.418c0.099,0.229,0.238,0.533,0.766,1.062
					c0.526,0.536,0.938,0.704,1.161,0.771C41.792,24.922,42.089,25.083,41.928,25.51z M42.824,23.65
					c-1.839-0.02-2.907-2.225-2.882-4.829c0.037-2.609,0.948-4.891,3.007-4.865c2.093,0.026,2.927,2.329,2.891,4.938
					C45.813,21.502,44.98,23.682,42.824,23.65z M51.537,13.113c-0.4,0.194-0.812,0.235-1.291-0.587
					c-0.151-0.271-0.443-0.865-1.156-1.563c-0.875-0.854-1.651-1.388-1.959-1.574c-0.593-0.357-0.703-0.749-0.422-1.19
					c0.229-0.366,0.646-0.516,1.396-0.094c0.553,0.313,1.229,0.662,2.255,1.724c0.901,0.937,1.151,1.381,1.434,1.95
					C52.099,12.375,51.954,12.917,51.537,13.113z"/>
			</g>
			<g>
				<path d="M63.776,5.14c-4.046-0.051-7.931,2.121-9.937,5.996c1.208,2.307,1.802,5.036,1.697,7.963
					c-0.114,3.252-1.183,7.156-3.239,10.239l-0.005,0.555c0.141,3.082,2.39,4.689,4.604,4.719c2.141,0.029,4.864-1.76,4.891-4.135
					c0.025-1.769,0.131-2.611,0.062-4.845c1.094,0.753,1.995,1.3,3.828,1.228c4.021-0.15,8.755-2.195,9.443-9.458
					C75.746,10.601,69.542,5.212,63.776,5.14z M63.61,18.776c-1.255-0.016-2.261-1.071-2.25-2.355
					c0.017-1.286,1.049-2.312,2.309-2.3c1.26,0.013,2.266,1.071,2.255,2.352C65.901,17.759,64.865,18.792,63.61,18.776z
					 M71.979,13.255c-0.412,0.203-0.854,0.124-1.099-0.378c-0.093-0.195-0.484-1.351-1.333-2.195
					c-0.839-0.849-1.729-1.422-2.03-1.609c-0.595-0.365-0.715-0.75-0.428-1.192c0.229-0.368,0.796-0.36,1.441,0
					c0.559,0.307,1.287,0.687,2.262,1.781c0.875,0.971,1.208,1.724,1.39,2.33C72.359,12.573,72.386,13.041,71.979,13.255z"/>
			</g>
			<g>
				<path d="M110.302,4.909c-6.463-0.696-7.401,5-5.328,6.862c0,0-0.906,1.349-2.088,3.237c-1.991-2.948-5.183-6.648-6.427-7.925
					c-2.25-2.308-4.329-1.979-6.111-0.312c1.621,1.197,2.584,2.833,2.584,4.693c0.006,1.227-0.463,2.312-1.374,3.135
					c-0.198,0.188-0.412,0.349-0.63,0.495c2.041,2.525,4.667,5.625,6.797,7.351c-1.475,2.227-2.798,4.539-3.63,6.354
					c-1.527,3.362,0.63,5.039,1.462,5.612c0.852,0.599,3.746,1.827,6.485-1.5c4.088-4.97,10.849-16.755,12.411-19.701
					C116.271,9.75,114.135,5.323,110.302,4.909z M112.458,11.445c-0.406-0.008-0.745-0.328-0.745-0.786
					c0.021-1.352-1.172-2.571-2.484-2.589c-0.302-0.002-0.786-0.123-0.78-0.74c0.006-0.268,0.28-0.69,0.901-0.685
					c2.118,0.025,3.869,1.859,3.844,4.031C113.194,11.109,112.859,11.448,112.458,11.445z"/>
			</g>
			<g>
				<path d="M93.72,25.74c-0.517-1.441-1.928-2.782-4.048-2.768c-2.609,0.021-4.005,2.109-5.703,2.969
					c-0.5,0.248-1.282,0.334-1.781-0.191c-0.78-0.828-0.469-1.598,0.304-2.268c0.551-0.483,3.149-1.896,4.358-2.598
					c0.958-0.557,1.266-1.307,1.349-1.901c0.067-0.474-0.026-1.266-0.433-1.792c-0.812-1.041-2.489-1.005-3.573-0.848
					c-1.422,0.202-1.572-1.131-1.441-1.665c0.308-1.252,1.576-1.226,2.365-0.562c0.646,0.54,1.446,1.108,3.135,1.266
					c1.188,0.117,4.172-0.998,4.166-3.92c-0.01-3.61-3.858-6.084-8.744-6.234c-4.49-0.141-8.1,2.833-9.38,5.922
					c1.046,1.911,1.515,4.016,1.349,6.145c0.469,0.375,0.995,0.717,1.531,1.097c-0.558,0.161-1.281,0.773-1.994,1.602
					c-0.542,2.036-1.454,3.517-2.542,4.59c-0.103,0.392-0.156,0.755-0.136,1.077c0.354,7.484,5.594,9.285,10.49,9.177
					c5.869-0.13,9.646-4.161,10.219-5.053C93.842,28.799,94.182,27.041,93.72,25.74z M85.589,7.266
					c0.218-0.324,0.744-0.423,1.291-0.167c0.266,0.125,1,0.427,1.615,0.948c1,0.844,1.291,1.421,1.432,1.614
					c0.433,0.641,0.308,1.127-0.13,1.362c-0.219,0.124-0.787,0.173-1.089-0.503c-0.109-0.242-0.417-0.682-1.176-1.312
					c-0.75-0.625-1.226-0.766-1.471-0.896C85.313,7.909,85.38,7.583,85.589,7.266z M88.797,27.167
					c-0.573-0.006-1.026-0.479-1.026-1.048c0.017-0.566,0.479-1.025,1.054-1.02c0.576,0.01,1.03,0.478,1.025,1.047
					C89.833,26.719,89.371,27.178,88.797,27.167z"/>
			</g>
		</g>
		<g>
			<g>
				<path d="M132.093,31.536c0.984,0,1.767,0.806,1.767,1.808c0,1.02-0.781,1.807-1.774,1.807c-0.99,0-1.787-0.785-1.787-1.807
					c0-1.002,0.797-1.808,1.787-1.808H132.093z M132.084,31.82c-0.797,0-1.438,0.685-1.438,1.521c0,0.854,0.642,1.526,1.446,1.526
					c0.798,0.011,1.444-0.673,1.444-1.521c0-0.845-0.646-1.529-1.444-1.529h-0.008V31.82z M131.745,34.391h-0.316v-2.009
					c0.165-0.024,0.322-0.046,0.566-0.046c0.303,0,0.5,0.062,0.625,0.154c0.12,0.082,0.183,0.223,0.183,0.406
					c0,0.266-0.172,0.432-0.39,0.492v0.018c0.17,0.035,0.296,0.191,0.332,0.494c0.048,0.31,0.1,0.428,0.125,0.49h-0.328
					c-0.058-0.062-0.101-0.248-0.142-0.515c-0.041-0.258-0.176-0.349-0.433-0.349h-0.224L131.745,34.391L131.745,34.391z
					 M131.745,33.279h0.233c0.262,0,0.49-0.098,0.49-0.348c0-0.176-0.131-0.35-0.49-0.35c-0.108,0-0.176,0.007-0.233,0.014V33.279z"
					/>
			</g>
		</g>
	</g>
</g>
</svg>
